<?xml version="1.0" encoding="UTF-8" standalone="no"?>
<!-- Created with Inkscape (http://www.inkscape.org/) -->

<svg
   xmlns:dc="http://purl.org/dc/elements/1.1/"
   xmlns:cc="http://creativecommons.org/ns#"
   xmlns:rdf="http://www.w3.org/1999/02/22-rdf-syntax-ns#"
   xmlns:svg="http://www.w3.org/2000/svg"
   xmlns="http://www.w3.org/2000/svg"
   xmlns:sodipodi="http://sodipodi.sourceforge.net/DTD/sodipodi-0.dtd"
   xmlns:inkscape="http://www.inkscape.org/namespaces/inkscape"
   width="60"
   height="100"
   viewBox="0 0 60 100"
   id="svg2"
   version="1.1"
   inkscape:version="0.91 r13725"
   sodipodi:docname="ejemplo.svg">
  <defs
     id="defs4">
    <marker
       inkscape:stockid="Arrow1Sstart"
       orient="auto"
       refY="0"
       refX="0"
       id="Arrow1Sstart"
       style="overflow:visible"
       inkscape:isstock="true"
       inkscape:collect="always">
      <path
         inkscape:connector-curvature="0"
         id="path7113"
         d="M 0,0 5,-5 -12.5,0 5,5 0,0 Z"
         style="fill:#ff0000;fill-opacity:1;fill-rule:evenodd;stroke:#ff0000;stroke-width:1pt;stroke-opacity:1"
         transform="matrix(0.2,0,0,0.2,1.2,0)" />
    </marker>
  </defs>
  <sodipodi:namedview
     id="base"
     pagecolor="#ffffff"
     bordercolor="#666666"
     borderopacity="1.0"
     inkscape:pageopacity="0.0"
     inkscape:pageshadow="2"
     inkscape:zoom="5.12"
     inkscape:cx="7.5341295"
     inkscape:cy="49.547266"
     inkscape:document-units="px"
     inkscape:current-layer="layer1"
     showgrid="false"
     units="px"
     inkscape:window-width="1301"
     inkscape:window-height="744"
     inkscape:window-x="65"
     inkscape:window-y="299"
     inkscape:window-maximized="1"
     inkscape:snap-bbox="true"
     inkscape:bbox-nodes="true"
     inkscape:snap-page="true"
     inkscape:snap-grids="true"
     inkscape:object-paths="true"
     inkscape:snap-intersection-paths="true"
     inkscape:snap-bbox-midpoints="true"
     inkscape:object-nodes="true"
     inkscape:snap-smooth-nodes="false"
     inkscape:snap-object-midpoints="true" />
  <metadata
     id="metadata7">
    <rdf:RDF>
      <cc:Work
         rdf:about="">
        <dc:format>image/svg+xml</dc:format>
        <dc:type
           rdf:resource="http://purl.org/dc/dcmitype/StillImage" />
        <dc:title></dc:title>
      </cc:Work>
    </rdf:RDF>
  </metadata>
  <g
     inkscape:label="Layer 1"
     inkscape:groupmode="layer"
     id="layer1"
     transform="translate(0,-952.36216)">
    <path
       d="m 0.125,952.48716 0,100.00004 m 5,-100.00004 0,100.00004 m 5,-100.00004 0,100.00004 m 5,-100.00004 0,100.00004 m 5,-100.00004 0,100.00004 m 5,-100.00004 0,100.00004 m 5,-100.00004 0,100.00004 m 5,-100.00004 0,100.00004 m 5,-100.00004 0,100.00004 m 5,-100.00004 0,100.00004 m 5,-100.00004 0,100.00004 m 5,-100.00004 0,100.00004 m 5,-100.00004 0,100.00004 m -60,-100.00004 60,0 m -60,5 60,0 m -60,5 60,0 m -60,5 60,0 m -60,5 60,0 m -60,5 60,0 m -60,5 60,0 m -60,5 60,0 m -60,5 60,0 m -60,5 60,0 m -60,5.00004 60,0 m -60,5 60,0 m -60,5 60,0 m -60,5 60,0 m -60,5 60,0 m -60,5 60,0 m -60,5 60,0 m -60,5 60,0 m -60,5 60,0 m -60,5 60,0 m -60,5 60,0"
       style="fill:none;fill-opacity:0.75;fill-rule:evenodd;stroke:#000000;stroke-width:0.2pt;stroke-linecap:butt;stroke-linejoin:miter;stroke-opacity:1"
       id="path4140"
       inkscape:connector-curvature="0" />
    <path
       style="fill:none;fill-rule:evenodd;stroke:#000000;stroke-width:1px;stroke-linecap:butt;stroke-linejoin:miter;stroke-opacity:1"
       d="m 5.125,1042.4872 50,0"
       id="path4148"
       inkscape:connector-curvature="0" />
    <circle
       style="fill:#0000ff;fill-opacity:1;stroke:none;stroke-width:1;stroke-miterlimit:4;stroke-dasharray:none;stroke-opacity:1"
       id="circle8297"
       cx="15.125"
       cy="1042.4872"
       r="1.2723216" />
    <circle
       r="1.2723216"
       cy="1042.4872"
       cx="45.125"
       id="circle4150"
       style="fill:#0000ff;fill-opacity:1;stroke:none;stroke-width:1;stroke-miterlimit:4;stroke-dasharray:none;stroke-opacity:1" />
    <g
       id="g8231"
       transform="translate(10.125,942.48716)">
      <path
         inkscape:connector-curvature="0"
         id="path8233"
         d="M 30,52.209821 30,42.49107"
         style="fill:none;fill-rule:evenodd;stroke:#ff0000;stroke-width:1px;stroke-linecap:butt;stroke-linejoin:miter;stroke-opacity:1;marker-start:url(#Arrow1Sstart)"
         sodipodi:nodetypes="cc" />
      <circle
         r="1.2723216"
         cy="55"
         cx="30"
         id="circle8235"
         style="fill:#ff0000;fill-opacity:1;stroke:none;stroke-width:1;stroke-miterlimit:4;stroke-dasharray:none;stroke-opacity:1" />
    </g>
    <g
       transform="translate(-9.875,942.48716)"
       id="g5414">
      <path
         sodipodi:nodetypes="cc"
         style="fill:none;fill-rule:evenodd;stroke:#ff0000;stroke-width:1px;stroke-linecap:butt;stroke-linejoin:miter;stroke-opacity:1;marker-start:url(#Arrow1Sstart)"
         d="M 30,52.209821 30,42.49107"
         id="path5416"
         inkscape:connector-curvature="0" />
      <circle
         style="fill:#ff0000;fill-opacity:1;stroke:none;stroke-width:1;stroke-miterlimit:4;stroke-dasharray:none;stroke-opacity:1"
         id="circle5418"
         cx="30"
         cy="55"
         r="1.2723216" />
    </g>
    <g
       transform="translate(15.125,917.48716)"
       id="g5420">
      <path
         sodipodi:nodetypes="cc"
         style="fill:none;fill-rule:evenodd;stroke:#ff0000;stroke-width:1px;stroke-linecap:butt;stroke-linejoin:miter;stroke-opacity:1;marker-start:url(#Arrow1Sstart)"
         d="M 30,52.209821 30,42.49107"
         id="path5422"
         inkscape:connector-curvature="0" />
      <circle
         style="fill:#ff0000;fill-opacity:1;stroke:none;stroke-width:1;stroke-miterlimit:4;stroke-dasharray:none;stroke-opacity:1"
         id="circle5424"
         cx="30"
         cy="55"
         r="1.2723216" />
    </g>
    <g
       id="g5426"
       transform="translate(-14.875,917.48716)">
      <path
         inkscape:connector-curvature="0"
         id="path5428"
         d="M 30,52.209821 30,42.49107"
         style="fill:none;fill-rule:evenodd;stroke:#ff0000;stroke-width:1px;stroke-linecap:butt;stroke-linejoin:miter;stroke-opacity:1;marker-start:url(#Arrow1Sstart)"
         sodipodi:nodetypes="cc" />
      <circle
         r="1.2723216"
         cy="55"
         cx="30"
         id="circle5430"
         style="fill:#ff0000;fill-opacity:1;stroke:none;stroke-width:1;stroke-miterlimit:4;stroke-dasharray:none;stroke-opacity:1" />
    </g>
  </g>
</svg>
